<svg width="66" height="67" viewBox="0 0 66 67" fill="none" xmlns="http://www.w3.org/2000/svg">
<g clip-path="url(#clip0_3476_720)">
<path d="M42.4143 33.346C42.3749 32.7325 42.0393 32.3763 41.3091 32.2377C39.513 31.8815 37.717 31.5253 35.9407 31.1691C34.3025 30.8326 32.6643 30.516 31.0262 30.1796C27.3354 29.4473 24.7104 26.8746 23.9801 23.2926C23.7828 22.3031 23.6841 21.2938 23.5854 20.3043C23.5459 19.9283 23.5064 19.5523 23.467 19.1763C23.2696 17.4348 23.0722 15.6932 22.8946 13.9319C22.6972 12.0914 22.4801 10.2509 22.2828 8.41046C22.2038 7.75739 21.7893 7.3418 21.1972 7.3418H21.1775C20.5854 7.3418 20.1709 7.75739 20.092 8.45004C19.9538 9.69682 19.8157 10.9436 19.6775 12.1904C19.3222 15.3766 18.9472 18.6815 18.6117 21.9469C18.1578 26.4195 15.513 29.3682 11.1907 30.2192C8.38802 30.7733 5.54592 31.3472 2.8025 31.9013L1.04592 32.2575C0.572232 32.3763 -0.03961 32.6533 -0.00013627 33.3658C0.0393374 33.9793 0.374864 34.3355 1.10513 34.474C3.23671 34.8896 5.4275 35.3448 7.5196 35.7604C8.74328 35.9979 9.94723 36.2551 11.1709 36.4926C15.5525 37.3832 18.1972 40.3319 18.6512 44.8045C18.9867 48.0896 19.3617 51.4342 19.717 54.6599C19.8551 55.8671 19.9933 57.0743 20.1314 58.2815C20.2104 58.9346 20.6446 59.37 21.2367 59.3502C21.8288 59.3502 22.2433 58.9148 22.3222 58.2419C22.4604 56.9952 22.5985 55.7484 22.7367 54.4818C23.092 51.2956 23.467 47.9907 23.8025 44.7451C24.2564 40.2725 26.8814 37.3238 31.2235 36.4728C34.0262 35.9187 36.888 35.3448 39.6314 34.7709L41.3485 34.4147C41.8617 34.3553 42.4538 34.0782 42.4143 33.346ZM34.9538 33.5241C34.5985 33.6033 34.263 33.6626 33.9078 33.7418C33.1578 33.9001 32.388 34.0782 31.6183 34.197C28.3617 34.7115 25.8946 36.0177 24.1183 38.1946C22.638 39.9955 21.8091 42.1526 21.6117 44.8045C21.5722 45.1805 21.5328 45.5565 21.4933 45.9127C21.4735 46.071 21.4538 46.2491 21.4341 46.4075V46.4866H21.3551H21.3157C21.1972 46.4866 21.1183 46.4668 21.0591 46.4075C20.9801 46.3283 20.9801 46.2096 20.9801 46.1106C20.9801 46.0908 20.9801 46.0512 20.9801 46.0314C20.9407 45.695 20.9012 45.3586 20.8617 45.0024C20.7235 43.7358 20.5657 42.4099 20.0722 41.1829C18.513 37.403 15.6709 35.1073 11.5854 34.3157C10.263 34.0584 8.84197 33.7616 7.44065 33.3658L7.06565 33.247L7.46039 33.1679C7.87486 33.0887 8.28934 32.9898 8.72355 32.9106C9.61171 32.7325 10.5393 32.5346 11.4472 32.3565C17.0525 31.268 20.4078 27.5277 20.8617 21.8282C20.8814 21.4719 20.9407 21.0959 20.9801 20.7397C20.9999 20.5814 21.0196 20.4033 21.0393 20.2449V20.146L21.4341 20.1658L21.4538 20.2449C21.4933 20.5814 21.5328 20.9178 21.5722 21.2542C21.6512 21.9667 21.7301 22.7187 21.8683 23.4312C22.7367 28.0818 26.092 31.4066 30.8683 32.2971C32.1709 32.5346 33.5722 32.8315 35.013 33.2668L35.388 33.3856L34.9538 33.5241Z" fill="white"/>
<path d="M65.0131 16.9203C64.0263 16.7224 63.0395 16.5245 62.0724 16.3068C60.9276 16.0693 59.7434 15.8121 58.5789 15.5944C56.0131 15.0996 54.296 13.2393 54.0197 10.6073C53.8224 8.84594 53.625 7.06483 53.4474 5.30351C53.3092 4.01716 53.171 2.75059 53.0329 1.46423C52.9539 0.692418 52.6184 0.316406 52.046 0.316406H52.0263C51.4539 0.316406 51.1184 0.692418 51.0197 1.46423L50.7631 3.79946C50.5263 6.03575 50.2697 8.29182 50.0131 10.5281C49.7171 13.2591 48.0592 15.06 45.375 15.6142C44.3881 15.8121 43.421 16.01 42.4342 16.2277C41.3092 16.4651 40.1447 16.7026 39 16.9401C38.3092 17.0786 37.9934 17.3953 37.9934 17.9494C37.9934 18.5035 38.3092 18.8399 38.9803 18.9785C40.0855 19.1962 41.1908 19.4336 42.2763 19.6513C43.3224 19.869 44.3684 20.0867 45.4145 20.3044C47.3881 20.7002 48.7697 21.8085 49.5592 23.5896C49.9145 24.3812 49.9934 25.2124 50.0724 26.0238C50.0921 26.1425 50.0921 26.281 50.1118 26.3998C50.2302 27.4486 50.3289 28.4975 50.4474 29.5266C50.625 31.2286 50.8026 32.9503 51 34.6522C51.0592 35.2064 51.4539 35.5824 51.9671 35.5824C52.5197 35.5824 52.875 35.1866 52.9539 34.5137L53.0724 33.4846C53.3684 30.7338 53.6842 27.983 53.9803 25.2321C54.2566 22.699 55.9934 20.819 58.5197 20.3242C59.6645 20.1065 60.8092 19.869 61.9145 19.6315C62.9013 19.4139 63.9474 19.216 64.9539 18.9983C65.6447 18.8597 65.9605 18.5431 65.9605 17.989C66 17.3755 65.7039 17.0588 65.0131 16.9203ZM58.8553 18.1275C55.421 18.7212 53.25 20.6211 52.1842 23.9458L51.9868 24.5593L51.8092 23.9458C51.296 22.2438 50.5066 20.9773 49.3816 19.9878C48.0592 18.8399 46.4408 18.3848 45.1776 18.1275L44.171 17.9098L45.1776 17.7317C48.6118 17.138 50.7829 15.2381 51.8092 11.9332L51.9868 11.3395L52.1842 11.9332C53.25 15.2579 55.421 17.1578 58.8553 17.7119L60.0197 17.9098L58.8553 18.1275Z" fill="white"/>
<path d="M57.888 51.4538C56.2499 51.1174 54.4735 50.7611 52.6775 50.4247C50.5656 50.0289 49.263 48.6832 48.9867 46.6448C48.7696 44.9626 48.5722 43.2607 48.3946 41.5983C48.3156 40.8661 48.2367 40.1536 48.1578 39.4214C48.0985 38.9662 47.9012 38.4121 47.2696 38.4121H47.2499C46.7564 38.4121 46.4209 38.7683 46.3617 39.3818C46.2828 40.1338 46.1841 40.9057 46.1051 41.6577C45.9275 43.2607 45.7499 44.9033 45.5328 46.5261C45.2367 48.7228 44.013 49.9893 41.8025 50.4247C41.0525 50.583 40.3025 50.7216 39.5525 50.8799C38.5656 51.0778 37.5788 51.2757 36.592 51.4736C36.0196 51.5923 35.7433 51.8694 35.7038 52.3641C35.6643 52.9578 36.1775 53.1953 36.6117 53.2745C37.2235 53.3932 37.8354 53.512 38.4472 53.6307C39.7301 53.888 41.0525 54.1452 42.3354 54.4421C44.1117 54.8775 45.2367 56.1045 45.4933 57.9252C45.7301 59.6469 45.9275 61.4082 46.1051 63.1102C46.1841 63.8424 46.263 64.5548 46.342 65.2871C46.4012 65.7422 46.5985 66.2964 47.2301 66.2964C47.9012 66.3162 48.0985 65.7422 48.1578 65.2475C48.2367 64.5548 48.3156 63.8622 48.3946 63.1497C48.5722 61.4874 48.7696 59.7854 48.9867 58.1033C49.263 56.0055 50.5459 54.6796 52.6972 54.264C53.7235 54.0661 54.7696 53.8682 55.7762 53.6505C56.4867 53.512 57.1972 53.3734 57.9078 53.2349C58.4801 53.1162 58.7564 52.8391 58.7959 52.3443C58.8354 51.7704 58.3222 51.5527 57.888 51.4538ZM51.8288 52.6412C49.7367 53.2943 48.3749 54.4817 47.5459 56.4013L47.2893 57.0148L47.013 56.4013C46.1249 54.4421 44.763 53.2349 42.7301 52.661L41.8025 52.3839L42.7104 52.0871C44.842 51.3944 46.1841 50.1872 46.9735 48.2874L47.2301 47.6343L47.5064 48.2676C48.3551 50.207 49.717 51.4142 51.8091 52.0475L52.7367 52.3245L51.8288 52.6412Z" fill="white"/>
</g>
<defs>
<clipPath id="clip0_3476_720">
<rect width="66" height="66" fill="white" transform="translate(0 0.316406)"/>
</clipPath>
</defs>
</svg>
